<?xml version="1.0" encoding="UTF-8" standalone="no"?><!DOCTYPE svg PUBLIC "-//W3C//DTD SVG 1.1//EN" "http://www.w3.org/Graphics/SVG/1.1/DTD/svg11.dtd"><svg width="100%" height="100%" viewBox="0 0 60 60" version="1.1" xmlns="http://www.w3.org/2000/svg" xmlns:xlink="http://www.w3.org/1999/xlink" xml:space="preserve" xmlns:serif="http://www.serif.com/" style="fill-rule:evenodd;clip-rule:evenodd;stroke-miterlimit:10;"><path d="M46.849,40.135c0,0.82 -0.873,1.329 -1.581,0.926l-9.034,-5.166c-0.331,-0.185 -0.536,-0.535 -0.536,-0.919l-0,-10.582c-0,-0.404 0.231,-0.774 0.589,-0.953l9.041,-4.517c0.701,-0.364 1.528,0.152 1.528,0.952l-0,20.252l-0.007,0.007Zm-22.527,-5.218c-0,0.403 -0.232,0.773 -0.589,0.952l-9.041,4.517c-0.701,0.351 -1.528,-0.165 -1.528,-0.952l0,-20.265c0,-0.807 0.873,-1.323 1.581,-0.92l9.041,5.153c0,-0 0.536,0.549 0.536,0.926l-0,10.589Zm33.361,-12.044l-6.918,-4.696c-1.006,-0.688 -1.026,-2.163 -0.047,-2.871l4.914,-3.525c1.012,-0.721 0.973,-2.236 -0.086,-2.904l-7.487,-4.696c-0.549,-0.337 -1.223,-0.35 -1.779,-0.046l-15.357,8.572c-0.516,0.284 -1.138,0.297 -1.66,0.02l-2.6,-1.363l-8.724,-4.934c-0.066,-0.046 -0.138,-0.079 -0.218,-0.112c-11.528,-4.617 -15.503,6.548 -16.078,8.439c-0.053,0.166 -0.08,0.337 -0.08,0.516l0,19.816c0,0.549 0.252,1.058 0.675,1.388l6.964,5.404c0.939,0.721 0.906,2.143 -0.066,2.818l-5.053,3.525c-1.045,0.734 -0.985,2.295 0.106,2.936l7.943,4.683c0.536,0.318 1.204,0.318 1.746,0.013l15.272,-8.611c0.523,-0.298 1.171,-0.304 1.7,-0.013l10.939,6.052c0.053,0.033 0.119,0.066 0.186,0.086c11.025,4.642 15.575,-5.47 16.343,-7.448c0.086,-0.198 0.119,-0.417 0.119,-0.635l-0,-20.966c-0,-0.582 -0.285,-1.125 -0.768,-1.455l0.014,0.007Z" style="fill:none;fill-rule:nonzero;stroke:#fff;stroke-width:0.83px;"/></svg>